<svg aria-roledescription="flowchart-v2" role="graphics-document document" viewBox="0 0 4307.96875 668.2000732421875" style="max-width: 4307.96875px;" class="flowchart" xmlns="http://www.w3.org/2000/svg" width="100%" id="mermaidSvgId"><style>#mermaidSvgId{font-family:"trebuchet ms",verdana,arial,sans-serif;font-size:16px;fill:#0a0f14;}@keyframes edge-animation-frame{from{stroke-dashoffset:0;}}@keyframes dash{to{stroke-dashoffset:0;}}#mermaidSvgId .edge-animation-slow{stroke-dasharray:9,5!important;stroke-dashoffset:900;animation:dash 50s linear infinite;stroke-linecap:round;}#mermaidSvgId .edge-animation-fast{stroke-dasharray:9,5!important;stroke-dashoffset:900;animation:dash 20s linear infinite;stroke-linecap:round;}#mermaidSvgId .error-icon{fill:#ffebee;}#mermaidSvgId .error-text{fill:#c62828;stroke:#c62828;}#mermaidSvgId .edge-thickness-normal{stroke-width:1px;}#mermaidSvgId .edge-thickness-thick{stroke-width:3.5px;}#mermaidSvgId .edge-pattern-solid{stroke-dasharray:0;}#mermaidSvgId .edge-thickness-invisible{stroke-width:0;fill:none;}#mermaidSvgId .edge-pattern-dashed{stroke-dasharray:3;}#mermaidSvgId .edge-pattern-dotted{stroke-dasharray:2;}#mermaidSvgId .marker{fill:#0a0f14;stroke:#0a0f14;}#mermaidSvgId .marker.cross{stroke:#0a0f14;}#mermaidSvgId svg{font-family:"trebuchet ms",verdana,arial,sans-serif;font-size:16px;}#mermaidSvgId p{margin:0;}#mermaidSvgId .label{font-family:"trebuchet ms",verdana,arial,sans-serif;color:#0a0f14;}#mermaidSvgId .cluster-label text{fill:#1e1e1e;}#mermaidSvgId .cluster-label span{color:#1e1e1e;}#mermaidSvgId .cluster-label span p{background-color:transparent;}#mermaidSvgId .label text,#mermaidSvgId span{fill:#0a0f14;color:#0a0f14;}#mermaidSvgId .node rect,#mermaidSvgId .node circle,#mermaidSvgId .node ellipse,#mermaidSvgId .node polygon,#mermaidSvgId .node path{fill:#ffffff;stroke:#1a468b;stroke-width:1px;}#mermaidSvgId .rough-node .label text,#mermaidSvgId .node .label text,#mermaidSvgId .image-shape .label,#mermaidSvgId .icon-shape .label{text-anchor:middle;}#mermaidSvgId .node .katex path{fill:#000;stroke:#000;stroke-width:1px;}#mermaidSvgId .rough-node .label,#mermaidSvgId .node .label,#mermaidSvgId .image-shape .label,#mermaidSvgId .icon-shape .label{text-align:center;}#mermaidSvgId .node.clickable{cursor:pointer;}#mermaidSvgId .root .anchor path{fill:#0a0f14!important;stroke-width:0;stroke:#0a0f14;}#mermaidSvgId .arrowheadPath{fill:#0a0f14;}#mermaidSvgId .edgePath .path{stroke:#0a0f14;stroke-width:2.0px;}#mermaidSvgId .flowchart-link{stroke:#0a0f14;fill:none;}#mermaidSvgId .edgeLabel{background-color:#ffffff;text-align:center;}#mermaidSvgId .edgeLabel p{background-color:#ffffff;}#mermaidSvgId .edgeLabel rect{opacity:0.5;background-color:#ffffff;fill:#ffffff;}#mermaidSvgId .labelBkg{background-color:rgba(255, 255, 255, 0.5);}#mermaidSvgId .cluster rect{fill:transparent;stroke:#3578c2;stroke-width:1px;}#mermaidSvgId .cluster text{fill:#1e1e1e;}#mermaidSvgId .cluster span{color:#1e1e1e;}#mermaidSvgId div.mermaidTooltip{position:absolute;text-align:center;max-width:200px;padding:2px;font-family:"trebuchet ms",verdana,arial,sans-serif;font-size:12px;background:#bbd6f2;border:1px solid #90b3d9;border-radius:2px;pointer-events:none;z-index:100;}#mermaidSvgId .flowchartTitleText{text-anchor:middle;font-size:18px;fill:#0a0f14;}#mermaidSvgId rect.text{fill:none;stroke-width:0;}#mermaidSvgId .icon-shape,#mermaidSvgId .image-shape{background-color:#ffffff;text-align:center;}#mermaidSvgId .icon-shape p,#mermaidSvgId .image-shape p{background-color:#ffffff;padding:2px;}#mermaidSvgId .icon-shape rect,#mermaidSvgId .image-shape rect{opacity:0.5;background-color:#ffffff;fill:#ffffff;}#mermaidSvgId :root{--mermaid-font-family:"trebuchet ms",verdana,arial,sans-serif;}</style><g><marker orient="auto" markerHeight="8" markerWidth="8" markerUnits="userSpaceOnUse" refY="5" refX="5" viewBox="0 0 10 10" class="marker flowchart-v2" id="mermaidSvgId_flowchart-v2-pointEnd"><path style="stroke-width: 1; stroke-dasharray: 1, 0;" class="arrowMarkerPath" d="M 0 0 L 10 5 L 0 10 z"></path></marker><marker orient="auto" markerHeight="8" markerWidth="8" markerUnits="userSpaceOnUse" refY="5" refX="4.5" viewBox="0 0 10 10" class="marker flowchart-v2" id="mermaidSvgId_flowchart-v2-pointStart"><path style="stroke-width: 1; stroke-dasharray: 1, 0;" class="arrowMarkerPath" d="M 0 5 L 10 10 L 10 0 z"></path></marker><marker orient="auto" markerHeight="11" markerWidth="11" markerUnits="userSpaceOnUse" refY="5" refX="11" viewBox="0 0 10 10" class="marker flowchart-v2" id="mermaidSvgId_flowchart-v2-circleEnd"><circle style="stroke-width: 1; stroke-dasharray: 1, 0;" class="arrowMarkerPath" r="5" cy="5" cx="5"></circle></marker><marker orient="auto" markerHeight="11" markerWidth="11" markerUnits="userSpaceOnUse" refY="5" refX="-1" viewBox="0 0 10 10" class="marker flowchart-v2" id="mermaidSvgId_flowchart-v2-circleStart"><circle style="stroke-width: 1; stroke-dasharray: 1, 0;" class="arrowMarkerPath" r="5" cy="5" cx="5"></circle></marker><marker orient="auto" markerHeight="11" markerWidth="11" markerUnits="userSpaceOnUse" refY="5.2" refX="12" viewBox="0 0 11 11" class="marker cross flowchart-v2" id="mermaidSvgId_flowchart-v2-crossEnd"><path style="stroke-width: 2; stroke-dasharray: 1, 0;" class="arrowMarkerPath" d="M 1,1 l 9,9 M 10,1 l -9,9"></path></marker><marker orient="auto" markerHeight="11" markerWidth="11" markerUnits="userSpaceOnUse" refY="5.2" refX="-1" viewBox="0 0 11 11" class="marker cross flowchart-v2" id="mermaidSvgId_flowchart-v2-crossStart"><path style="stroke-width: 2; stroke-dasharray: 1, 0;" class="arrowMarkerPath" d="M 1,1 l 9,9 M 10,1 l -9,9"></path></marker><g class="root"><g class="clusters"><g data-look="classic" id="SD" class="cluster"><rect height="264.4000015258789" width="1157.4250030517578" y="254.8000030517578" x="8" style=""></rect><g transform="translate(515.4828109741211, 254.8000030517578)" class="cluster-label"><g><rect style="stroke: none" class="background"></rect><text style="" y="-10.1"><tspan dy="1.1em" y="-0.1em" x="0" class="text-outer-tspan"><tspan font-weight="normal" class="text-inner-tspan" font-style="normal">Listing</tspan><tspan font-weight="normal" class="text-inner-tspan" font-style="normal"> Management</tspan></tspan></text></g></g></g><g data-look="classic" id="SC" class="cluster"><rect height="387.8000030517578" width="993.3562469482422" y="131.4000015258789" x="1185.4250030517578" style=""></rect><g transform="translate(1601.114845275879, 131.4000015258789)" class="cluster-label"><g><rect style="stroke: none" class="background"></rect><text style="" y="-10.1"><tspan dy="1.1em" y="-0.1em" x="0" class="text-outer-tspan"><tspan font-weight="normal" class="text-inner-tspan" font-style="normal">Validation</tspan><tspan font-weight="normal" class="text-inner-tspan" font-style="normal"> and</tspan><tspan font-weight="normal" class="text-inner-tspan" font-style="normal"> Storage</tspan></tspan></text></g></g></g><g data-look="classic" id="SB" class="cluster"><rect height="257" width="2101.187515258789" y="403.2000045776367" x="2198.78125" style=""></rect><g transform="translate(3173.900001525879, 403.2000045776367)" class="cluster-label"><g><rect style="stroke: none" class="background"></rect><text style="" y="-10.1"><tspan dy="1.1em" y="-0.1em" x="0" class="text-outer-tspan"><tspan font-weight="normal" class="text-inner-tspan" font-style="normal">Product</tspan><tspan font-weight="normal" class="text-inner-tspan" font-style="normal"> Upload</tspan><tspan font-weight="normal" class="text-inner-tspan" font-style="normal"> Form</tspan></tspan></text></g></g></g><g data-look="classic" id="SA" class="cluster"><rect height="345.2000045776367" width="525.9750061035156" y="8" x="2853.793758392334" style=""></rect><g transform="translate(3035.527355194092, 8)" class="cluster-label"><g><rect style="stroke: none" class="background"></rect><text style="" y="-10.1"><tspan dy="1.1em" y="-0.1em" x="0" class="text-outer-tspan"><tspan font-weight="normal" class="text-inner-tspan" font-style="normal">Dealer</tspan><tspan font-weight="normal" class="text-inner-tspan" font-style="normal"> Panel</tspan><tspan font-weight="normal" class="text-inner-tspan" font-style="normal"> Overview</tspan></tspan></text></g></g></g></g><g class="edgePaths"><path marker-end="url(#mermaidSvgId_flowchart-v2-pointEnd)" style="" class="edge-thickness-normal edge-pattern-solid edge-thickness-normal edge-pattern-solid flowchart-link" id="L_A_B_0" d="M3222.144,81.4L3222.144,85.567C3222.144,89.733,3222.144,98.067,3222.144,106.4C3222.144,114.733,3222.144,123.067,3222.144,130.733C3222.144,138.4,3222.144,145.4,3222.144,148.9L3222.144,152.4"></path><path marker-end="url(#mermaidSvgId_flowchart-v2-pointEnd)" style="" class="edge-thickness-normal edge-pattern-solid edge-thickness-normal edge-pattern-solid flowchart-link" id="L_B_C_0" d="M3117.861,204.8L3099.906,208.967C3081.951,213.133,3046.041,221.467,3028.086,229.8C3010.131,238.133,3010.131,246.467,3010.131,254.133C3010.131,261.8,3010.131,268.8,3010.131,272.3L3010.131,275.8"></path><path marker-end="url(#mermaidSvgId_flowchart-v2-pointEnd)" style="" class="edge-thickness-normal edge-pattern-solid edge-thickness-normal edge-pattern-solid flowchart-link" id="L_B_D_0" d="M3236.9,204.8L3239.441,208.967C3241.981,213.133,3247.062,221.467,3249.603,229.8C3252.144,238.133,3252.144,246.467,3252.144,254.133C3252.144,261.8,3252.144,268.8,3252.144,272.3L3252.144,275.8"></path><path marker-end="url(#mermaidSvgId_flowchart-v2-pointEnd)" style="" class="edge-thickness-normal edge-pattern-solid edge-thickness-normal edge-pattern-solid flowchart-link" id="L_D_E_0" d="M3252.144,328.2L3252.144,332.367C3252.144,336.533,3252.144,344.867,3252.144,353.2C3252.144,361.533,3252.144,369.867,3252.144,378.2C3252.144,386.533,3252.144,394.867,3252.144,404C3252.144,413.133,3252.144,423.067,3252.144,428.033L3252.144,433"></path><path marker-end="url(#mermaidSvgId_flowchart-v2-pointEnd)" style="" class="edge-thickness-normal edge-pattern-solid edge-thickness-normal edge-pattern-solid flowchart-link" id="L_E_F_0" d="M3197.672,485.4L3184.991,491.033C3172.311,496.667,3146.951,507.933,3134.271,517.733C3121.591,527.533,3121.591,535.867,3010.958,548.283C2900.325,560.7,2679.06,577.199,2568.428,585.449L2457.795,593.699"></path><path marker-end="url(#mermaidSvgId_flowchart-v2-pointEnd)" style="" class="edge-thickness-normal edge-pattern-solid edge-thickness-normal edge-pattern-solid flowchart-link" id="L_E_G_0" d="M3242.801,485.4L3240.627,491.033C3238.452,496.667,3234.103,507.933,3231.928,517.733C3229.753,527.533,3229.753,535.867,3145.484,547.945C3061.215,560.023,2892.677,575.847,2808.408,583.758L2724.139,591.67"></path><path marker-end="url(#mermaidSvgId_flowchart-v2-pointEnd)" style="" class="edge-thickness-normal edge-pattern-solid edge-thickness-normal edge-pattern-solid flowchart-link" id="L_E_H_0" d="M3251.146,485.4L3250.914,491.033C3250.682,496.667,3250.218,507.933,3249.985,517.733C3249.753,527.533,3249.753,535.867,3202.327,547.196C3154.902,558.525,3060.05,572.849,3012.625,580.011L2965.199,587.174"></path><path marker-end="url(#mermaidSvgId_flowchart-v2-pointEnd)" style="" class="edge-thickness-normal edge-pattern-solid edge-thickness-normal edge-pattern-solid flowchart-link" id="L_E_I_0" d="M3296.276,485.4L3306.549,491.033C3316.823,496.667,3337.369,507.933,3347.642,517.733C3357.916,527.533,3357.916,535.867,3358.666,543.548C3359.417,551.229,3360.919,558.259,3361.67,561.774L3362.421,565.288"></path><path marker-end="url(#mermaidSvgId_flowchart-v2-pointEnd)" style="" class="edge-thickness-normal edge-pattern-solid edge-thickness-normal edge-pattern-solid flowchart-link" id="L_E_J_0" d="M3337.594,475.101L3382.774,482.451C3427.955,489.801,3518.317,504.5,3563.497,516.017C3608.678,527.533,3608.678,535.867,3609.429,543.548C3610.18,551.229,3611.682,558.259,3612.432,561.774L3613.183,565.288"></path><path marker-end="url(#mermaidSvgId_flowchart-v2-pointEnd)" style="" class="edge-thickness-normal edge-pattern-solid edge-thickness-normal edge-pattern-solid flowchart-link" id="L_E_K_0" d="M3337.594,469.229L3426.232,477.557C3514.87,485.886,3692.146,502.543,3780.784,515.038C3869.422,527.533,3869.422,535.867,3870.486,545.015C3871.55,554.163,3873.679,564.126,3874.743,569.107L3875.807,574.088"></path><path marker-end="url(#mermaidSvgId_flowchart-v2-pointEnd)" style="" class="edge-thickness-normal edge-pattern-solid edge-thickness-normal edge-pattern-solid flowchart-link" id="L_E_L_0" d="M3337.594,467.773L3449.012,476.345C3560.43,484.916,3783.267,502.058,3894.685,514.796C4006.103,527.533,4006.103,535.867,3875.204,548.544C3744.306,561.22,3482.508,578.241,3351.609,586.751L3220.71,595.261"></path><path marker-end="url(#mermaidSvgId_flowchart-v2-pointEnd)" style="" class="edge-thickness-normal edge-pattern-solid edge-thickness-normal edge-pattern-solid flowchart-link" id="L_E_M_0" d="M3337.594,466.688L3473.857,475.44C3610.121,484.192,3882.648,501.696,4018.911,514.615C4155.175,527.533,4155.175,535.867,4155.175,543.533C4155.175,551.2,4155.175,558.2,4155.175,561.7L4155.175,565.2"></path><path marker-end="url(#mermaidSvgId_flowchart-v2-pointEnd)" style="" class="edge-thickness-normal edge-pattern-solid edge-thickness-normal edge-pattern-solid flowchart-link" id="L_N_F_0" d="M1285.171,485.4L1280.278,491.033C1275.384,496.667,1265.597,507.933,1439.969,517.733C1614.341,527.533,1972.872,535.867,2153.202,545.015C2333.531,554.163,2335.66,564.126,2336.724,569.107L2337.788,574.088"></path><path marker-end="url(#mermaidSvgId_flowchart-v2-pointEnd)" style="" class="edge-thickness-normal edge-pattern-solid edge-thickness-normal edge-pattern-solid flowchart-link" id="L_N_G_0" d="M1306.194,485.4L1306.194,491.033C1306.194,496.667,1306.194,507.933,1521.76,517.733C1737.326,527.533,2168.458,535.867,2384.775,543.548C2601.092,551.229,2602.594,558.259,2603.345,561.774L2604.096,565.288"></path><path marker-end="url(#mermaidSvgId_flowchart-v2-pointEnd)" style="" class="edge-thickness-normal edge-pattern-solid edge-thickness-normal edge-pattern-solid flowchart-link" id="L_N_H_0" d="M1351.007,485.4L1361.438,491.033C1371.87,496.667,1392.734,507.933,1643.117,517.733C1893.501,527.533,2373.405,535.867,2614.108,543.548C2854.811,551.229,2856.313,558.259,2857.064,561.774L2857.814,565.288"></path><path marker-end="url(#mermaidSvgId_flowchart-v2-pointEnd)" style="" class="edge-thickness-normal edge-pattern-solid edge-thickness-normal edge-pattern-solid flowchart-link" id="L_O_L_0" d="M1521,485.4L1521,491.033C1521,496.667,1521,507.933,1763.742,517.733C2006.483,527.533,2491.967,535.867,2743.903,543.939C2995.839,552.012,3014.229,559.824,3023.423,563.73L3032.618,567.636"></path><path marker-end="url(#mermaidSvgId_flowchart-v2-pointEnd)" style="" class="edge-thickness-normal edge-pattern-solid edge-thickness-normal edge-pattern-solid flowchart-link" id="L_P_L_0" d="M1753.809,485.4L1753.809,491.033C1753.809,496.667,1753.809,507.933,1978.44,517.733C2203.07,527.533,2652.33,535.867,2877.711,543.548C3103.092,551.229,3104.594,558.259,3105.345,561.774L3106.096,565.288"></path><path marker-end="url(#mermaidSvgId_flowchart-v2-pointEnd)" style="" class="edge-thickness-normal edge-pattern-solid edge-thickness-normal edge-pattern-solid flowchart-link" id="L_Q_S_0" d="M2025.681,328.2L2025.681,332.367C2025.681,336.533,2025.681,344.867,2025.681,353.2C2025.681,361.533,2025.681,369.867,2025.681,378.2C2025.681,386.533,2025.681,394.867,2025.681,404C2025.681,413.133,2025.681,423.067,2025.681,428.033L2025.681,433"></path><path marker-end="url(#mermaidSvgId_flowchart-v2-pointEnd)" style="" class="edge-thickness-normal edge-pattern-solid edge-thickness-normal edge-pattern-solid flowchart-link" id="L_R_Q_0" d="M2025.681,204.8L2025.681,208.967C2025.681,213.133,2025.681,221.467,2025.681,229.8C2025.681,238.133,2025.681,246.467,2025.681,254.133C2025.681,261.8,2025.681,268.8,2025.681,272.3L2025.681,275.8"></path><path marker-end="url(#mermaidSvgId_flowchart-v2-pointEnd)" style="" class="edge-thickness-normal edge-pattern-solid edge-thickness-normal edge-pattern-solid flowchart-link" id="L_B_T_0" d="M3289.837,204.8L3301.493,208.967C3313.148,213.133,3336.458,221.467,3348.114,229.8C3359.769,238.133,3359.769,246.467,2886.804,258.601C2413.84,270.735,1467.912,286.67,994.947,294.638L521.983,302.605"></path><path marker-end="url(#mermaidSvgId_flowchart-v2-pointEnd)" style="" class="edge-thickness-normal edge-pattern-solid edge-thickness-normal edge-pattern-solid flowchart-link" id="L_T_U_0" d="M360.416,317.834L326.847,323.728C293.278,329.622,226.139,341.411,192.569,351.472C159,361.533,159,369.867,159,378.2C159,386.533,159,394.867,159,402.533C159,410.2,159,417.2,159,420.7L159,424.2"></path><path marker-end="url(#mermaidSvgId_flowchart-v2-pointEnd)" style="" class="edge-thickness-normal edge-pattern-solid edge-thickness-normal edge-pattern-solid flowchart-link" id="L_T_V_0" d="M439.2,328.2L439.2,332.367C439.2,336.533,439.2,344.867,439.2,353.2C439.2,361.533,439.2,369.867,439.2,378.2C439.2,386.533,439.2,394.867,439.2,404C439.2,413.133,439.2,423.067,439.2,428.033L439.2,433"></path><path marker-end="url(#mermaidSvgId_flowchart-v2-pointEnd)" style="" class="edge-thickness-normal edge-pattern-solid edge-thickness-normal edge-pattern-solid flowchart-link" id="L_T_W_0" d="M517.984,318.102L550.665,323.951C583.347,329.801,648.711,341.501,681.393,351.517C714.075,361.533,714.075,369.867,714.075,378.2C714.075,386.533,714.075,394.867,714.075,404C714.075,413.133,714.075,423.067,714.075,428.033L714.075,433"></path></g><g class="edgeLabels"><g><rect style="stroke: none" class="background"></rect></g><g><rect style="stroke: none" class="background"></rect></g><g><rect style="stroke: none" class="background"></rect></g><g><rect style="stroke: none" class="background"></rect></g><g><rect style="stroke: none" class="background"></rect></g><g><rect style="stroke: none" class="background"></rect></g><g><rect style="stroke: none" class="background"></rect></g><g><rect style="stroke: none" class="background"></rect></g><g><rect style="stroke: none" class="background"></rect></g><g><rect style="stroke: none" class="background"></rect></g><g><rect style="stroke: none" class="background"></rect></g><g><rect style="stroke: none" class="background"></rect></g><g><rect style="stroke: none" class="background"></rect></g><g><rect style="stroke: none" class="background"></rect></g><g><rect style="stroke: none" class="background"></rect></g><g><rect style="stroke: none" class="background"></rect></g><g><rect style="stroke: none" class="background"></rect></g><g><rect style="stroke: none" class="background"></rect></g><g><rect style="stroke: none" class="background"></rect></g><g><rect style="stroke: none" class="background"></rect></g><g><rect style="stroke: none" class="background"></rect></g><g><rect style="stroke: none" class="background"></rect></g><g><rect style="stroke: none" class="background"></rect></g><g class="edgeLabel"><g transform="translate(0, 0)" class="label"><text y="-10.1"><tspan dy="1.1em" y="-0.1em" x="0" class="text-outer-tspan"></tspan></text></g></g><g class="edgeLabel"><g transform="translate(0, 0)" class="label"><text y="-10.1"><tspan dy="1.1em" y="-0.1em" x="0" class="text-outer-tspan"></tspan></text></g></g><g class="edgeLabel"><g transform="translate(0, 0)" class="label"><text y="-10.1"><tspan dy="1.1em" y="-0.1em" x="0" class="text-outer-tspan"></tspan></text></g></g><g class="edgeLabel"><g transform="translate(0, 0)" class="label"><text y="-10.1"><tspan dy="1.1em" y="-0.1em" x="0" class="text-outer-tspan"></tspan></text></g></g><g class="edgeLabel"><g transform="translate(0, 0)" class="label"><text y="-10.1"><tspan dy="1.1em" y="-0.1em" x="0" class="text-outer-tspan"></tspan></text></g></g><g class="edgeLabel"><g transform="translate(0, 0)" class="label"><text y="-10.1"><tspan dy="1.1em" y="-0.1em" x="0" class="text-outer-tspan"></tspan></text></g></g><g class="edgeLabel"><g transform="translate(0, 0)" class="label"><text y="-10.1"><tspan dy="1.1em" y="-0.1em" x="0" class="text-outer-tspan"></tspan></text></g></g><g class="edgeLabel"><g transform="translate(0, 0)" class="label"><text y="-10.1"><tspan dy="1.1em" y="-0.1em" x="0" class="text-outer-tspan"></tspan></text></g></g><g class="edgeLabel"><g transform="translate(0, 0)" class="label"><text y="-10.1"><tspan dy="1.1em" y="-0.1em" x="0" class="text-outer-tspan"></tspan></text></g></g><g class="edgeLabel"><g transform="translate(0, 0)" class="label"><text y="-10.1"><tspan dy="1.1em" y="-0.1em" x="0" class="text-outer-tspan"></tspan></text></g></g><g class="edgeLabel"><g transform="translate(0, 0)" class="label"><text y="-10.1"><tspan dy="1.1em" y="-0.1em" x="0" class="text-outer-tspan"></tspan></text></g></g><g class="edgeLabel"><g transform="translate(0, 0)" class="label"><text y="-10.1"><tspan dy="1.1em" y="-0.1em" x="0" class="text-outer-tspan"></tspan></text></g></g><g class="edgeLabel"><g transform="translate(0, 0)" class="label"><text y="-10.1"><tspan dy="1.1em" y="-0.1em" x="0" class="text-outer-tspan"></tspan></text></g></g><g class="edgeLabel"><g transform="translate(0, 0)" class="label"><text y="-10.1"><tspan dy="1.1em" y="-0.1em" x="0" class="text-outer-tspan"></tspan></text></g></g><g class="edgeLabel"><g transform="translate(0, 0)" class="label"><text y="-10.1"><tspan dy="1.1em" y="-0.1em" x="0" class="text-outer-tspan"></tspan></text></g></g><g class="edgeLabel"><g transform="translate(0, 0)" class="label"><text y="-10.1"><tspan dy="1.1em" y="-0.1em" x="0" class="text-outer-tspan"></tspan></text></g></g><g class="edgeLabel"><g transform="translate(0, 0)" class="label"><text y="-10.1"><tspan dy="1.1em" y="-0.1em" x="0" class="text-outer-tspan"></tspan></text></g></g><g class="edgeLabel"><g transform="translate(0, 0)" class="label"><text y="-10.1"><tspan dy="1.1em" y="-0.1em" x="0" class="text-outer-tspan"></tspan></text></g></g><g class="edgeLabel"><g transform="translate(0, 0)" class="label"><text y="-10.1"><tspan dy="1.1em" y="-0.1em" x="0" class="text-outer-tspan"></tspan></text></g></g><g class="edgeLabel"><g transform="translate(0, 0)" class="label"><text y="-10.1"><tspan dy="1.1em" y="-0.1em" x="0" class="text-outer-tspan"></tspan></text></g></g><g class="edgeLabel"><g transform="translate(0, 0)" class="label"><text y="-10.1"><tspan dy="1.1em" y="-0.1em" x="0" class="text-outer-tspan"></tspan></text></g></g><g class="edgeLabel"><g transform="translate(0, 0)" class="label"><text y="-10.1"><tspan dy="1.1em" y="-0.1em" x="0" class="text-outer-tspan"></tspan></text></g></g><g class="edgeLabel"><g transform="translate(0, 0)" class="label"><text y="-10.1"><tspan dy="1.1em" y="-0.1em" x="0" class="text-outer-tspan"></tspan></text></g></g></g><g class="nodes"><g transform="translate(3222.1437644958496, 57.20000076293945)" id="flowchart-A-0" class="node default"><rect height="48.39999961853027" width="206.32501220703125" y="-24.199999809265137" x="-103.16250610351562" style="" class="basic label-container"></rect><g transform="translate(0, -9.199999809265137)" style="" class="label"><rect></rect><g><rect style="stroke: none" class="background"></rect><text style="" y="-10.1"><tspan dy="1.1em" y="-0.1em" x="0" class="text-outer-tspan"><tspan font-weight="normal" class="text-inner-tspan" font-style="normal">Login</tspan><tspan font-weight="normal" class="text-inner-tspan" font-style="normal"> via</tspan><tspan font-weight="normal" class="text-inner-tspan" font-style="normal"> Subdomain</tspan></tspan></text></g></g></g><g transform="translate(3222.1437644958496, 180.60000228881836)" id="flowchart-B-1" class="node default"><rect height="48.39999961853027" width="229.15000915527344" y="-24.199999809265137" x="-114.57500457763672" style="" class="basic label-container"></rect><g transform="translate(0, -9.199999809265137)" style="" class="label"><rect></rect><g><rect style="stroke: none" class="background"></rect><text style="" y="-10.1"><tspan dy="1.1em" y="-0.1em" x="0" class="text-outer-tspan"><tspan font-weight="normal" class="text-inner-tspan" font-style="normal">Personalized</tspan><tspan font-weight="normal" class="text-inner-tspan" font-style="normal"> Dashboard</tspan></tspan></text></g></g></g><g transform="translate(3010.131259918213, 304.00000381469727)" id="flowchart-C-2" class="node default"><rect height="48.39999961853027" width="242.6750030517578" y="-24.199999809265137" x="-121.3375015258789" style="" class="basic label-container"></rect><g transform="translate(0, -9.199999809265137)" style="" class="label"><rect></rect><g><rect style="stroke: none" class="background"></rect><text style="" y="-10.1"><tspan dy="1.1em" y="-0.1em" x="0" class="text-outer-tspan"><tspan font-weight="normal" class="text-inner-tspan" font-style="normal">Current</tspan><tspan font-weight="normal" class="text-inner-tspan" font-style="normal"> Subscription</tspan><tspan font-weight="normal" class="text-inner-tspan" font-style="normal"> Plan</tspan></tspan></text></g></g></g><g transform="translate(3252.1437644958496, 304.00000381469727)" id="flowchart-D-3" class="node default"><rect height="48.39999961853027" width="141.3499984741211" y="-24.199999809265137" x="-70.67499923706055" style="" class="basic label-container"></rect><g transform="translate(0, -9.199999809265137)" style="" class="label"><rect></rect><g><rect style="stroke: none" class="background"></rect><text style="" y="-10.1"><tspan dy="1.1em" y="-0.1em" x="0" class="text-outer-tspan"><tspan font-weight="normal" class="text-inner-tspan" font-style="normal">Key</tspan><tspan font-weight="normal" class="text-inner-tspan" font-style="normal"> Actions</tspan></tspan></text></g></g></g><g transform="translate(3252.1437644958496, 461.2000045776367)" id="flowchart-E-4" class="node default"><rect height="48.39999961853027" width="170.9000015258789" y="-24.199999809265137" x="-85.45000076293945" style="" class="basic label-container"></rect><g transform="translate(0, -9.199999809265137)" style="" class="label"><rect></rect><g><rect style="stroke: none" class="background"></rect><text style="" y="-10.1"><tspan dy="1.1em" y="-0.1em" x="0" class="text-outer-tspan"><tspan font-weight="normal" class="text-inner-tspan" font-style="normal">Dynamic</tspan><tspan font-weight="normal" class="text-inner-tspan" font-style="normal"> Filters</tspan></tspan></text></g></g></g><g transform="translate(2343.793746948242, 602.2000045776367)" id="flowchart-F-5" class="node default"><rect height="48.39999961853027" width="220.02500915527344" y="-24.199999809265137" x="-110.01250457763672" style="" class="basic label-container"></rect><g transform="translate(0, -9.199999809265137)" style="" class="label"><rect></rect><g><rect style="stroke: none" class="background"></rect><text style="" y="-10.1"><tspan dy="1.1em" y="-0.1em" x="0" class="text-outer-tspan"><tspan font-weight="normal" class="text-inner-tspan" font-style="normal">Brand</tspan><tspan font-weight="normal" class="text-inner-tspan" font-style="normal"> (Text,</tspan><tspan font-weight="normal" class="text-inner-tspan" font-style="normal"> required)</tspan></tspan></text></g></g></g><g transform="translate(2611.981246948242, 602.2000045776367)" id="flowchart-G-6" class="node default"><rect height="66" width="216.35000610351562" y="-33" x="-108.17500305175781" style="" class="basic label-container"></rect><g transform="translate(0, -18)" style="" class="label"><rect></rect><g><rect style="stroke: none" class="background"></rect><text style="" y="-10.1"><tspan dy="1.1em" y="-0.1em" x="0" class="text-outer-tspan"><tspan font-weight="normal" class="text-inner-tspan" font-style="normal">Fuel</tspan><tspan font-weight="normal" class="text-inner-tspan" font-style="normal"> Type</tspan><tspan font-weight="normal" class="text-inner-tspan" font-style="normal"> (Dropdown,</tspan></tspan><tspan dy="1.1em" y="1em" x="0" class="text-outer-tspan"><tspan font-weight="normal" class="text-inner-tspan" font-style="normal">required)</tspan></tspan></text></g></g></g><g transform="translate(2865.7000045776367, 602.2000045776367)" id="flowchart-H-7" class="node default"><rect height="66" width="191.08750915527344" y="-33" x="-95.54375457763672" style="" class="basic label-container"></rect><g transform="translate(0, -18)" style="" class="label"><rect></rect><g><rect style="stroke: none" class="background"></rect><text style="" y="-10.1"><tspan dy="1.1em" y="-0.1em" x="0" class="text-outer-tspan"><tspan font-weight="normal" class="text-inner-tspan" font-style="normal">KM</tspan><tspan font-weight="normal" class="text-inner-tspan" font-style="normal"> Driven</tspan><tspan font-weight="normal" class="text-inner-tspan" font-style="normal"> (Range,</tspan></tspan><tspan dy="1.1em" y="1em" x="0" class="text-outer-tspan"><tspan font-weight="normal" class="text-inner-tspan" font-style="normal">required)</tspan></tspan></text></g></g></g><g transform="translate(3370.306266784668, 602.2000045776367)" id="flowchart-I-8" class="node default"><rect height="66" width="207.1750030517578" y="-33" x="-103.5875015258789" style="" class="basic label-container"></rect><g transform="translate(0, -18)" style="" class="label"><rect></rect><g><rect style="stroke: none" class="background"></rect><text style="" y="-10.1"><tspan dy="1.1em" y="-0.1em" x="0" class="text-outer-tspan"><tspan font-weight="normal" class="text-inner-tspan" font-style="normal">Features</tspan><tspan font-weight="normal" class="text-inner-tspan" font-style="normal"> (Checkbox,</tspan></tspan><tspan dy="1.1em" y="1em" x="0" class="text-outer-tspan"><tspan font-weight="normal" class="text-inner-tspan" font-style="normal">optional)</tspan></tspan></text></g></g></g><g transform="translate(3621.0687713623047, 602.2000045776367)" id="flowchart-J-9" class="node default"><rect height="66" width="194.35000610351562" y="-33" x="-97.17500305175781" style="" class="basic label-container"></rect><g transform="translate(0, -18)" style="" class="label"><rect></rect><g><rect style="stroke: none" class="background"></rect><text style="" y="-10.1"><tspan dy="1.1em" y="-0.1em" x="0" class="text-outer-tspan"><tspan font-weight="normal" class="text-inner-tspan" font-style="normal">Tyre</tspan><tspan font-weight="normal" class="text-inner-tspan" font-style="normal"> Quality</tspan><tspan font-weight="normal" class="text-inner-tspan" font-style="normal"> (Text,</tspan></tspan><tspan dy="1.1em" y="1em" x="0" class="text-outer-tspan"><tspan font-weight="normal" class="text-inner-tspan" font-style="normal">optional)</tspan></tspan></text></g></g></g><g transform="translate(3881.8125228881836, 602.2000045776367)" id="flowchart-K-10" class="node default"><rect height="48.39999961853027" width="227.1374969482422" y="-24.199999809265137" x="-113.5687484741211" style="" class="basic label-container"></rect><g transform="translate(0, -9.199999809265137)" style="" class="label"><rect></rect><g><rect style="stroke: none" class="background"></rect><text style="" y="-10.1"><tspan dy="1.1em" y="-0.1em" x="0" class="text-outer-tspan"><tspan font-weight="normal" class="text-inner-tspan" font-style="normal">Price</tspan><tspan font-weight="normal" class="text-inner-tspan" font-style="normal"> (Range,</tspan><tspan font-weight="normal" class="text-inner-tspan" font-style="normal"> required)</tspan></tspan></text></g></g></g><g transform="translate(3113.9812622070312, 602.2000045776367)" id="flowchart-L-11" class="node default"><rect height="66" width="205.47500610351562" y="-33" x="-102.73750305175781" style="" class="basic label-container"></rect><g transform="translate(0, -18)" style="" class="label"><rect></rect><g><rect style="stroke: none" class="background"></rect><text style="" y="-10.1"><tspan dy="1.1em" y="-0.1em" x="0" class="text-outer-tspan"><tspan font-weight="normal" class="text-inner-tspan" font-style="normal">Images</tspan><tspan font-weight="normal" class="text-inner-tspan" font-style="normal"> (File</tspan><tspan font-weight="normal" class="text-inner-tspan" font-style="normal"> upload,</tspan></tspan><tspan dy="1.1em" y="1em" x="0" class="text-outer-tspan"><tspan font-weight="normal" class="text-inner-tspan" font-style="normal">required)</tspan></tspan></text></g></g></g><g transform="translate(4155.175018310547, 602.2000045776367)" id="flowchart-M-12" class="node default"><rect height="66" width="219.58750915527344" y="-33" x="-109.79375457763672" style="" class="basic label-container"></rect><g transform="translate(0, -18)" style="" class="label"><rect></rect><g><rect style="stroke: none" class="background"></rect><text style="" y="-10.1"><tspan dy="1.1em" y="-0.1em" x="0" class="text-outer-tspan"><tspan font-weight="normal" class="text-inner-tspan" font-style="normal">Description</tspan><tspan font-weight="normal" class="text-inner-tspan" font-style="normal"> (Textarea,</tspan></tspan><tspan dy="1.1em" y="1em" x="0" class="text-outer-tspan"><tspan font-weight="normal" class="text-inner-tspan" font-style="normal">required)</tspan></tspan></text></g></g></g><g transform="translate(1306.1937561035156, 461.2000045776367)" id="flowchart-N-13" class="node default"><rect height="48.39999961853027" width="171.53750610351562" y="-24.199999809265137" x="-85.76875305175781" style="" class="basic label-container"></rect><g transform="translate(0, -9.199999809265137)" style="" class="label"><rect></rect><g><rect style="stroke: none" class="background"></rect><text style="" y="-10.1"><tspan dy="1.1em" y="-0.1em" x="0" class="text-outer-tspan"><tspan font-weight="normal" class="text-inner-tspan" font-style="normal">Field</tspan><tspan font-weight="normal" class="text-inner-tspan" font-style="normal"> Validation</tspan></tspan></text></g></g></g><g transform="translate(1521.0000076293945, 461.2000045776367)" id="flowchart-O-14" class="node default"><rect height="48.39999961853027" width="158.07500457763672" y="-24.199999809265137" x="-79.03750228881836" style="" class="basic label-container"></rect><g transform="translate(0, -9.199999809265137)" style="" class="label"><rect></rect><g><rect style="stroke: none" class="background"></rect><text style="" y="-10.1"><tspan dy="1.1em" y="-0.1em" x="0" class="text-outer-tspan"><tspan font-weight="normal" class="text-inner-tspan" font-style="normal">Upload</tspan><tspan font-weight="normal" class="text-inner-tspan" font-style="normal"> Limits</tspan></tspan></text></g></g></g><g transform="translate(1753.8093795776367, 461.2000045776367)" id="flowchart-P-15" class="node default"><rect height="48.39999961853027" width="207.5437469482422" y="-24.199999809265137" x="-103.7718734741211" style="" class="basic label-container"></rect><g transform="translate(0, -9.199999809265137)" style="" class="label"><rect></rect><g><rect style="stroke: none" class="background"></rect><text style="" y="-10.1"><tspan dy="1.1em" y="-0.1em" x="0" class="text-outer-tspan"><tspan font-weight="normal" class="text-inner-tspan" font-style="normal">Image</tspan><tspan font-weight="normal" class="text-inner-tspan" font-style="normal"> Format</tspan><tspan font-weight="normal" class="text-inner-tspan" font-style="normal"> Check</tspan></tspan></text></g></g></g><g transform="translate(2025.681251525879, 304.00000381469727)" id="flowchart-Q-16" class="node default"><rect height="48.39999961853027" width="184.4015655517578" y="-24.199999809265137" x="-92.2007827758789" style="" class="basic label-container"></rect><g transform="translate(0, -9.199999809265137)" style="" class="label"><rect></rect><g><rect style="stroke: none" class="background"></rect><text style="" y="-10.1"><tspan dy="1.1em" y="-0.1em" x="0" class="text-outer-tspan"><tspan font-weight="normal" class="text-inner-tspan" font-style="normal">Database</tspan><tspan font-weight="normal" class="text-inner-tspan" font-style="normal"> Storage</tspan></tspan></text></g></g></g><g transform="translate(2025.681251525879, 180.60000228881836)" id="flowchart-R-17" class="node default"><rect height="48.39999961853027" width="166.73125457763672" y="-24.199999809265137" x="-83.36562728881836" style="" class="basic label-container"></rect><g transform="translate(0, -9.199999809265137)" style="" class="label"><rect></rect><g><rect style="stroke: none" class="background"></rect><text style="" y="-10.1"><tspan dy="1.1em" y="-0.1em" x="0" class="text-outer-tspan"><tspan font-weight="normal" class="text-inner-tspan" font-style="normal">Image</tspan><tspan font-weight="normal" class="text-inner-tspan" font-style="normal"> Security</tspan></tspan></text></g></g></g><g transform="translate(2025.681251525879, 461.2000045776367)" id="flowchart-S-18" class="node default"><rect height="48.39999961853027" width="236.1999969482422" y="-24.199999809265137" x="-118.0999984741211" style="" class="basic label-container"></rect><g transform="translate(0, -9.199999809265137)" style="" class="label"><rect></rect><g><rect style="stroke: none" class="background"></rect><text style="" y="-10.1"><tspan dy="1.1em" y="-0.1em" x="0" class="text-outer-tspan"><tspan font-weight="normal" class="text-inner-tspan" font-style="normal">Product</tspan><tspan font-weight="normal" class="text-inner-tspan" font-style="normal"> Status</tspan><tspan font-weight="normal" class="text-inner-tspan" font-style="normal"> (Pending)</tspan></tspan></text></g></g></g><g transform="translate(439.1999969482422, 304.00000381469727)" id="flowchart-T-19" class="node default"><rect height="48.39999961853027" width="157.56719207763672" y="-24.199999809265137" x="-78.78359603881836" style="" class="basic label-container"></rect><g transform="translate(0, -9.199999809265137)" style="" class="label"><rect></rect><g><rect style="stroke: none" class="background"></rect><text style="" y="-10.1"><tspan dy="1.1em" y="-0.1em" x="0" class="text-outer-tspan"><tspan font-weight="normal" class="text-inner-tspan" font-style="normal">Product</tspan><tspan font-weight="normal" class="text-inner-tspan" font-style="normal"> Table</tspan></tspan></text></g></g></g><g transform="translate(159, 461.2000045776367)" id="flowchart-U-20" class="node default"><rect height="66" width="232" y="-33" x="-116" style="" class="basic label-container"></rect><g transform="translate(0, -18)" style="" class="label"><rect></rect><g><rect style="stroke: none" class="background"></rect><text style="" y="-10.1"><tspan dy="1.1em" y="-0.1em" x="0" class="text-outer-tspan"><tspan font-weight="normal" class="text-inner-tspan" font-style="normal">Status</tspan><tspan font-weight="normal" class="text-inner-tspan" font-style="normal"> (Active,</tspan><tspan font-weight="normal" class="text-inner-tspan" font-style="normal"> Pending,</tspan></tspan><tspan dy="1.1em" y="1em" x="0" class="text-outer-tspan"><tspan font-weight="normal" class="text-inner-tspan" font-style="normal">Rejected)</tspan></tspan></text></g></g></g><g transform="translate(439.1999969482422, 461.2000045776367)" id="flowchart-V-21" class="node default"><rect height="48.39999961853027" width="228.40000915527344" y="-24.199999809265137" x="-114.20000457763672" style="" class="basic label-container"></rect><g transform="translate(0, -9.199999809265137)" style="" class="label"><rect></rect><g><rect style="stroke: none" class="background"></rect><text style="" y="-10.1"><tspan dy="1.1em" y="-0.1em" x="0" class="text-outer-tspan"><tspan font-weight="normal" class="text-inner-tspan" font-style="normal">Edit,</tspan><tspan font-weight="normal" class="text-inner-tspan" font-style="normal"> Delete,</tspan><tspan font-weight="normal" class="text-inner-tspan" font-style="normal"> Re-upload</tspan></tspan></text></g></g></g><g transform="translate(714.0749969482422, 461.2000045776367)" id="flowchart-W-22" class="node default"><rect height="48.39999961853027" width="221.35000610351562" y="-24.199999809265137" x="-110.67500305175781" style="" class="basic label-container"></rect><g transform="translate(0, -9.199999809265137)" style="" class="label"><rect></rect><g><rect style="stroke: none" class="background"></rect><text style="" y="-10.1"><tspan dy="1.1em" y="-0.1em" x="0" class="text-outer-tspan"><tspan font-weight="normal" class="text-inner-tspan" font-style="normal">Multiple</tspan><tspan font-weight="normal" class="text-inner-tspan" font-style="normal"> Image</tspan><tspan font-weight="normal" class="text-inner-tspan" font-style="normal"> Upload</tspan></tspan></text></g></g></g><g transform="translate(1002.5875015258789, 461.2000045776367)" id="flowchart-X-23" class="node default"><rect height="48.39999961853027" width="255.6750030517578" y="-24.199999809265137" x="-127.8375015258789" style="" class="basic label-container"></rect><g transform="translate(0, -9.199999809265137)" style="" class="label"><rect></rect><g><rect style="stroke: none" class="background"></rect><text style="" y="-10.1"><tspan dy="1.1em" y="-0.1em" x="0" class="text-outer-tspan"><tspan font-weight="normal" class="text-inner-tspan" font-style="normal">Preview</tspan><tspan font-weight="normal" class="text-inner-tspan" font-style="normal"> and</tspan><tspan font-weight="normal" class="text-inner-tspan" font-style="normal"> Drag-and-Drop</tspan></tspan></text></g></g></g></g></g></g></svg>